<?xml version="1.0" encoding="utf-8"?>
<!-- Generator: Adobe Illustrator 16.0.0, SVG Export Plug-In . SVG Version: 6.00 Build 0)  -->
<!DOCTYPE svg PUBLIC "-//W3C//DTD SVG 1.1//EN" "http://www.w3.org/Graphics/SVG/1.1/DTD/svg11.dtd">
<svg version="1.1" id="Layer_1" xmlns="http://www.w3.org/2000/svg" xmlns:xlink="http://www.w3.org/1999/xlink" x="0px" y="0px"
	 width="512px" height="512px" viewBox="0 0 512 512" enable-background="new 0 0 512 512" xml:space="preserve">
<g>
	
		<rect x="112.624" y="198.749" transform="matrix(0.6435 0.7655 -0.7655 0.6435 230.9386 -28.5043)" fill="none" stroke="#FFFFFF" stroke-width="12" stroke-linecap="round" stroke-linejoin="bevel" stroke-miterlimit="10" width="66.891" height="69.842"/>
	<path fill="none" stroke="#FFFFFF" stroke-width="12" stroke-linecap="round" stroke-linejoin="bevel" stroke-miterlimit="10" d="
		M391.324,309.839c-15.251,12.821-38.009,10.851-50.828-4.401c-12.824-15.252-10.854-38.009,4.399-50.831
		c15.253-12.821,38.009-10.851,50.83,4.401C408.547,274.261,406.576,297.018,391.324,309.839z"/>
	<g>
		<path fill="none" stroke="#FFFFFF" stroke-width="12" stroke-linecap="round" stroke-linejoin="round" stroke-miterlimit="10" d="
			M375.898,207.403c2.055-37.329-47.975-109.424-85.857-65.141c-23.805,27.828-23.76,155.544-58.492,213.595
			c-29.945,50.048-86.352,15.487-82.924-42.73"/>
		
			<polyline fill="none" stroke="#FFFFFF" stroke-width="12" stroke-linecap="round" stroke-linejoin="round" stroke-miterlimit="10" points="
			167.551,329.127 146.625,310.882 130.528,329.344 		"/>
		
			<polyline fill="none" stroke="#FFFFFF" stroke-width="12" stroke-linecap="round" stroke-linejoin="round" stroke-miterlimit="10" points="
			355.236,194.277 375.074,212.669 395.066,194.049 		"/>
	</g>
</g>
<g>
	
		<circle fill="none" stroke="#FFFFFF" stroke-width="12" stroke-linecap="round" stroke-linejoin="bevel" stroke-dasharray="31.702,31.702" cx="258.571" cy="256.565" r="211.904"/>
</g>
</svg>
