<?xml version="1.0" encoding="utf-8"?>
<!-- Generator: Adobe Illustrator 16.0.0, SVG Export Plug-In . SVG Version: 6.00 Build 0)  -->
<!DOCTYPE svg PUBLIC "-//W3C//DTD SVG 1.1//EN" "http://www.w3.org/Graphics/SVG/1.1/DTD/svg11.dtd">
<svg version="1.1" id="Layer_1" xmlns="http://www.w3.org/2000/svg" xmlns:xlink="http://www.w3.org/1999/xlink" x="0px" y="0px"
	 width="512px" height="512px" viewBox="0 0 512 512" enable-background="new 0 0 512 512" xml:space="preserve">
<g>
	<path fill="none" stroke="#FFFFFF" stroke-width="12" stroke-linecap="round" stroke-linejoin="bevel" stroke-miterlimit="10" d="
		M279.372,199.742c-9.658,0-18.372-4.801-23.372-12.143V256h68.935c-7.883,4-13.107,13.701-13.107,23.776
		c0,15.767,12.782,28.435,28.549,28.435s28.549-12.611,28.549-28.377c0-10.075-5.225-19.834-13.108-23.834H425v-69.365
		c5,7.884,13.793,13.107,23.868,13.107c15.769,0,28.479-12.781,28.479-28.548s-12.679-28.548-28.445-28.548
		c-10.076,0-18.902,5.224-23.902,13.107V87h-68.22c7.342-5,12.145-13.774,12.145-23.434c0-15.767-12.782-28.586-28.549-28.586
		s-28.549,12.838-28.549,28.606c0,9.659,4.802,18.414,12.145,23.414H256v67.789c5-7.341,13.714-12.143,23.372-12.143
		c15.767,0,28.548,12.781,28.548,28.548S295.139,199.742,279.372,199.742z"/>
	<path fill="none" stroke="#FFFFFF" stroke-width="12" stroke-linecap="round" stroke-linejoin="bevel" stroke-miterlimit="10" d="
		M312.367,279.485c0-9.657,4.803-18.485,12.144-23.485H256v69.162c-4-7.883-13.646-13.107-23.722-13.107
		c-15.766,0-28.404,12.782-28.404,28.549s12.567,28.549,28.332,28.549c10.075,0,19.794-5.225,23.794-13.108V425h69.477
		c-7.886,5-13.109,13.906-13.109,23.981c0,15.768,12.781,28.536,28.549,28.536s28.549-12.765,28.549-28.53
		c0-10.077-5.223-18.987-13.108-23.987H425v-67.992c5,7.341,13.828,12.145,23.488,12.145c15.768,0,28.616-12.782,28.616-28.549
		s-12.882-28.549-28.649-28.549c-9.659,0-18.455,4.802-23.455,12.145V256h-67.678c7.34,5,12.143,13.828,12.143,23.485
		c0,15.768-12.781,28.549-28.549,28.549S312.367,295.253,312.367,279.485z"/>
	<path fill="none" stroke="#FFFFFF" stroke-width="12" stroke-linecap="round" stroke-linejoin="bevel" stroke-miterlimit="10" d="
		M199.568,232.612c0,9.658-4.802,18.388-12.143,23.388H256v-68.966c4,7.883,13.615,13.107,23.69,13.107
		c15.765,0,28.39-12.782,28.39-28.549s-12.545-28.549-28.31-28.549c-10.076,0-19.771,5.225-23.771,13.109V87h-69.539
		c7.885-5,13.107-13.809,13.107-23.884c0-15.768-12.781-28.487-28.549-28.487c-15.767,0-28.547,12.69-28.547,28.457
		c0,10.076,5.225,18.914,13.107,23.914H87v68.188c-5-7.341-13.86-12.145-23.521-12.145c-15.768,0-28.63,12.782-28.63,28.549
		s12.904,28.549,28.672,28.549c9.658,0,18.479-4.802,23.479-12.144V256h67.615c-7.341-5-12.143-13.729-12.143-23.388
		c0-15.767,12.78-28.547,28.547-28.547C186.787,204.065,199.568,216.846,199.568,232.612z"/>
</g>
</svg>
