<?xml version="1.0" encoding="utf-8"?>
<!-- Generator: Adobe Illustrator 16.0.0, SVG Export Plug-In . SVG Version: 6.00 Build 0)  -->
<!DOCTYPE svg PUBLIC "-//W3C//DTD SVG 1.1//EN" "http://www.w3.org/Graphics/SVG/1.1/DTD/svg11.dtd">
<svg version="1.1" id="Layer_1" xmlns="http://www.w3.org/2000/svg" xmlns:xlink="http://www.w3.org/1999/xlink" x="0px" y="0px"
	 width="512px" height="512px" viewBox="0 0 512 512" enable-background="new 0 0 512 512" xml:space="preserve">
<g>
	<path fill="#FFFFFF" d="M78.555,90.11h-8.284v-5.484h15.501v23.842h8.457v5.484H69.261v-5.484h9.294V90.11z M86.349,76.602
		c0,0.635-0.115,1.231-0.347,1.79c-0.23,0.559-0.553,1.044-0.967,1.458c-0.414,0.414-0.899,0.741-1.458,0.981
		c-0.558,0.241-1.164,0.361-1.818,0.361s-1.266-0.12-1.833-0.361c-0.567-0.24-1.059-0.567-1.472-0.981
		c-0.414-0.414-0.736-0.899-0.967-1.458c-0.231-0.558-0.347-1.155-0.347-1.79c0-0.635,0.115-1.231,0.347-1.79
		c0.23-0.558,0.553-1.049,0.967-1.472c0.413-0.423,0.904-0.755,1.472-0.996c0.567-0.24,1.179-0.361,1.833-0.361
		s1.261,0.121,1.818,0.361c0.559,0.241,1.044,0.573,1.458,0.996s0.736,0.914,0.967,1.472C86.233,75.37,86.349,75.966,86.349,76.602z
		"/>
	<path fill="#FFFFFF" d="M119.081,113.953V94.844c0-3.213-1.193-4.821-3.579-4.821c-1.193,0-2.333,0.481-3.42,1.443
		c-1.088,0.962-2.237,2.271-3.449,3.926v18.56h-7.043V84.626h6.09l0.174,4.33c0.596-0.75,1.217-1.433,1.861-2.049
		c0.645-0.616,1.342-1.14,2.093-1.573c0.75-0.433,1.559-0.765,2.425-0.996c0.865-0.231,1.837-0.347,2.915-0.347
		c1.501,0,2.81,0.246,3.926,0.736c1.115,0.491,2.05,1.184,2.8,2.078c0.751,0.895,1.313,1.973,1.688,3.233
		c0.375,1.261,0.563,2.67,0.563,4.229v19.686H119.081z"/>
	<path fill="#FFFFFF" d="M158.28,113.664c-1.271,0.289-2.55,0.52-3.839,0.693c-1.29,0.173-2.512,0.26-3.666,0.26
		c-1.925,0-3.584-0.202-4.979-0.606c-1.396-0.404-2.55-1.02-3.464-1.847c-0.914-0.827-1.587-1.881-2.021-3.161
		c-0.433-1.28-0.649-2.805-0.649-4.575V90.11h-7.88v-5.484h7.88v-7.505l7.217-1.876v9.381h11.401v5.484h-11.401v13.797
		c0,1.674,0.384,2.939,1.154,3.796c0.77,0.856,2.059,1.284,3.868,1.284c1.154,0,2.28-0.096,3.377-0.289
		c1.097-0.192,2.097-0.414,3.002-0.664V113.664z"/>
	<path fill="#FFFFFF" d="M192.139,97.038c0,0.481-0.015,1.107-0.043,1.876c-0.029,0.77-0.072,1.492-0.13,2.165h-19.282
		c0,1.289,0.197,2.424,0.592,3.406s0.953,1.804,1.674,2.468c0.722,0.664,1.588,1.169,2.599,1.515c1.01,0.346,2.131,0.52,3.362,0.52
		c1.424,0,2.949-0.11,4.575-0.332c1.626-0.221,3.314-0.582,5.065-1.082v5.6c-0.75,0.212-1.568,0.404-2.453,0.577
		c-0.886,0.173-1.79,0.327-2.713,0.462c-0.924,0.134-1.857,0.235-2.801,0.303c-0.942,0.067-1.856,0.101-2.742,0.101
		c-2.232,0-4.233-0.318-6.004-0.953c-1.771-0.635-3.271-1.573-4.503-2.814s-2.174-2.775-2.828-4.604
		c-0.654-1.828-0.981-3.944-0.981-6.35c0-2.386,0.327-4.556,0.981-6.509c0.654-1.953,1.577-3.627,2.771-5.022
		c1.193-1.395,2.642-2.472,4.345-3.233c1.703-0.76,3.603-1.14,5.7-1.14c2.079,0,3.916,0.323,5.514,0.967
		c1.597,0.645,2.935,1.544,4.012,2.699c1.078,1.155,1.896,2.531,2.454,4.127C191.859,93.382,192.139,95.133,192.139,97.038z
		 M184.98,96.027c0.019-1.154-0.126-2.16-0.434-3.016c-0.308-0.856-0.727-1.563-1.255-2.122c-0.53-0.558-1.146-0.972-1.848-1.241
		c-0.703-0.269-1.458-0.404-2.266-0.404c-1.771,0-3.224,0.592-4.359,1.775c-1.135,1.184-1.809,2.853-2.021,5.008H184.98z"/>
	<path fill="#FFFFFF" d="M221.09,89.764c0.539,0.674,0.919,1.381,1.141,2.122c0.221,0.741,0.332,1.497,0.332,2.266
		c0,1.636-0.284,3.079-0.852,4.33c-0.568,1.251-1.366,2.3-2.396,3.146c-1.03,0.847-2.262,1.486-3.695,1.919
		s-3.017,0.649-4.748,0.649c-1.021,0-1.963-0.101-2.829-0.303c-0.865-0.202-1.52-0.438-1.963-0.707
		c-0.327,0.328-0.605,0.688-0.837,1.083c-0.23,0.395-0.346,0.842-0.346,1.342c0,0.308,0.076,0.616,0.23,0.923
		c0.154,0.308,0.38,0.583,0.679,0.823c0.298,0.241,0.653,0.438,1.067,0.592c0.414,0.154,0.881,0.241,1.4,0.26l6.956,0.26
		c1.559,0.039,2.969,0.236,4.229,0.592c1.261,0.356,2.343,0.861,3.248,1.516c0.904,0.654,1.602,1.448,2.093,2.381
		c0.49,0.934,0.735,1.996,0.735,3.189c0,1.366-0.308,2.655-0.924,3.868c-0.615,1.212-1.544,2.266-2.785,3.161
		c-1.241,0.895-2.785,1.602-4.633,2.122s-3.993,0.779-6.437,0.779c-2.367,0-4.402-0.188-6.105-0.563
		c-1.703-0.375-3.098-0.9-4.186-1.573c-1.087-0.674-1.891-1.477-2.41-2.41c-0.52-0.934-0.779-1.958-0.779-3.074
		c0-0.674,0.087-1.299,0.26-1.876c0.174-0.577,0.434-1.13,0.779-1.66c0.347-0.529,0.78-1.043,1.3-1.544s1.135-1,1.847-1.501
		c-0.942-0.539-1.659-1.231-2.15-2.079c-0.49-0.846-0.736-1.75-0.736-2.713c0-0.654,0.087-1.265,0.26-1.833
		c0.174-0.567,0.399-1.111,0.679-1.631s0.602-1.02,0.967-1.501s0.751-0.953,1.155-1.415c-0.713-0.711-1.305-1.573-1.775-2.583
		c-0.472-1.01-0.707-2.275-0.707-3.795c0-1.636,0.293-3.093,0.88-4.373s1.4-2.357,2.439-3.233c1.039-0.875,2.275-1.54,3.709-1.992
		s2.997-0.678,4.69-0.678c0.866,0,1.698,0.043,2.497,0.13c0.798,0.086,1.524,0.236,2.179,0.447h10.161v5.138H221.09z
		 M204.493,117.85c0,1.135,0.572,1.972,1.717,2.511c1.146,0.538,2.757,0.808,4.835,0.808c1.328,0,2.449-0.125,3.363-0.375
		s1.659-0.577,2.237-0.981c0.577-0.404,0.99-0.875,1.241-1.414c0.249-0.539,0.375-1.097,0.375-1.674c0-0.52-0.121-0.958-0.361-1.313
		s-0.577-0.654-1.01-0.895c-0.434-0.241-0.943-0.424-1.53-0.548c-0.587-0.125-1.236-0.207-1.948-0.246l-6.206-0.115
		c-0.559,0.385-1.015,0.75-1.371,1.097s-0.635,0.688-0.837,1.025c-0.202,0.336-0.337,0.678-0.404,1.024
		C204.526,117.099,204.493,117.464,204.493,117.85z M205.677,94.325c0,1.559,0.456,2.795,1.371,3.709
		c0.913,0.914,2.188,1.371,3.824,1.371c0.866,0,1.621-0.145,2.266-0.433s1.179-0.673,1.603-1.154c0.423-0.481,0.74-1.04,0.952-1.674
		c0.212-0.635,0.317-1.299,0.317-1.992c0-1.635-0.457-2.911-1.371-3.825c-0.914-0.914-2.188-1.371-3.824-1.371
		c-0.866,0-1.621,0.145-2.266,0.433c-0.646,0.289-1.18,0.678-1.603,1.169s-0.741,1.063-0.952,1.717
		C205.782,92.93,205.677,93.613,205.677,94.325z"/>
	<path fill="#FFFFFF" d="M257.142,97.038c0,0.481-0.015,1.107-0.043,1.876c-0.029,0.77-0.072,1.492-0.13,2.165h-19.282
		c0,1.289,0.197,2.424,0.592,3.406s0.953,1.804,1.674,2.468c0.722,0.664,1.588,1.169,2.599,1.515c1.01,0.346,2.131,0.52,3.362,0.52
		c1.424,0,2.949-0.11,4.575-0.332c1.626-0.221,3.314-0.582,5.065-1.082v5.6c-0.75,0.212-1.568,0.404-2.453,0.577
		c-0.886,0.173-1.79,0.327-2.713,0.462c-0.924,0.134-1.857,0.235-2.801,0.303c-0.942,0.067-1.856,0.101-2.742,0.101
		c-2.232,0-4.233-0.318-6.004-0.953c-1.771-0.635-3.271-1.573-4.503-2.814s-2.174-2.775-2.828-4.604
		c-0.654-1.828-0.981-3.944-0.981-6.35c0-2.386,0.327-4.556,0.981-6.509c0.654-1.953,1.577-3.627,2.771-5.022
		c1.193-1.395,2.642-2.472,4.345-3.233c1.703-0.76,3.603-1.14,5.7-1.14c2.079,0,3.916,0.323,5.514,0.967
		c1.597,0.645,2.935,1.544,4.012,2.699c1.078,1.155,1.896,2.531,2.454,4.127C256.862,93.382,257.142,95.133,257.142,97.038z
		 M249.983,96.027c0.019-1.154-0.126-2.16-0.434-3.016c-0.308-0.856-0.727-1.563-1.255-2.122c-0.53-0.558-1.146-0.972-1.848-1.241
		c-0.703-0.269-1.458-0.404-2.266-0.404c-1.771,0-3.224,0.592-4.359,1.775c-1.135,1.184-1.809,2.853-2.021,5.008H249.983z"/>
	<path fill="#FFFFFF" d="M282.976,96.027c0.038-1.097-0.015-2.03-0.158-2.8c-0.145-0.77-0.376-1.404-0.693-1.905
		s-0.707-0.866-1.169-1.097s-0.991-0.346-1.588-0.346c-1.039,0-2.111,0.428-3.218,1.284c-1.107,0.857-2.324,2.266-3.651,4.229v18.56
		h-7.217V84.626h6.38l0.26,4.272c0.48-0.75,1.024-1.424,1.631-2.021c0.605-0.596,1.279-1.111,2.021-1.544
		c0.74-0.433,1.563-0.765,2.468-0.996c0.904-0.231,1.895-0.347,2.973-0.347c1.481,0,2.795,0.255,3.94,0.765
		c1.145,0.51,2.107,1.266,2.887,2.266c0.779,1.001,1.356,2.257,1.731,3.767c0.375,1.511,0.534,3.257,0.477,5.239H282.976z"/>
	<path fill="#FFFFFF" d="M93.276,169.322c0,1.674-0.371,3.103-1.111,4.286c-0.741,1.184-1.723,2.146-2.944,2.887
		c-1.223,0.741-2.607,1.28-4.156,1.616c-1.55,0.336-3.132,0.505-4.749,0.505c-2.155,0-4.099-0.101-5.83-0.303
		c-1.732-0.202-3.368-0.495-4.907-0.88v-6.35c1.809,0.75,3.612,1.294,5.412,1.631c1.799,0.337,3.497,0.505,5.095,0.505
		c1.848,0,3.228-0.293,4.142-0.88c0.914-0.587,1.371-1.352,1.371-2.295c0-0.442-0.096-0.846-0.288-1.212s-0.554-0.717-1.083-1.054
		c-0.529-0.336-1.274-0.683-2.236-1.039c-0.963-0.356-2.223-0.755-3.781-1.198c-1.443-0.404-2.709-0.861-3.796-1.371
		c-1.088-0.509-1.987-1.111-2.699-1.804s-1.246-1.496-1.602-2.41c-0.356-0.914-0.534-1.987-0.534-3.219
		c0-1.193,0.27-2.318,0.809-3.377c0.538-1.058,1.342-1.987,2.41-2.786c1.067-0.798,2.4-1.429,3.997-1.891
		c1.598-0.462,3.464-0.693,5.601-0.693c1.847,0,3.482,0.097,4.906,0.289s2.685,0.404,3.781,0.635v5.744
		c-1.674-0.539-3.247-0.919-4.719-1.14c-1.473-0.221-2.93-0.332-4.373-0.332s-2.603,0.26-3.479,0.779s-1.313,1.241-1.313,2.165
		c0,0.443,0.087,0.837,0.26,1.184c0.174,0.346,0.515,0.683,1.025,1.01c0.509,0.327,1.222,0.668,2.136,1.024
		c0.913,0.356,2.121,0.746,3.622,1.169c1.693,0.481,3.117,0.996,4.272,1.544c1.154,0.548,2.083,1.169,2.785,1.862
		s1.207,1.482,1.516,2.367C93.122,167.177,93.276,168.187,93.276,169.322z"/>
	<path fill="#FFFFFF" d="M125.778,177.664c-1.271,0.289-2.55,0.52-3.839,0.693c-1.29,0.173-2.512,0.26-3.666,0.26
		c-1.925,0-3.584-0.202-4.979-0.606c-1.396-0.404-2.55-1.02-3.464-1.847c-0.914-0.827-1.587-1.881-2.021-3.161
		c-0.433-1.28-0.649-2.805-0.649-4.575V154.11h-7.88v-5.484h7.88v-7.505l7.217-1.876v9.381h11.401v5.484h-11.401v13.797
		c0,1.674,0.384,2.939,1.154,3.796c0.77,0.856,2.059,1.284,3.868,1.284c1.154,0,2.28-0.096,3.377-0.289
		c1.097-0.192,2.097-0.414,3.002-0.664V177.664z"/>
	<path fill="#FFFFFF" d="M152.969,160.027c0.038-1.097-0.015-2.03-0.158-2.8c-0.145-0.77-0.376-1.404-0.693-1.905
		s-0.707-0.866-1.169-1.097s-0.991-0.346-1.588-0.346c-1.039,0-2.111,0.428-3.218,1.284c-1.107,0.857-2.324,2.266-3.651,4.229v18.56
		h-7.217v-29.327h6.38l0.26,4.272c0.48-0.75,1.024-1.424,1.631-2.021c0.605-0.596,1.279-1.111,2.021-1.544
		c0.74-0.433,1.563-0.765,2.468-0.996c0.904-0.231,1.895-0.347,2.973-0.347c1.481,0,2.795,0.255,3.94,0.765
		c1.145,0.51,2.107,1.266,2.887,2.266c0.779,1.001,1.356,2.257,1.731,3.767c0.375,1.511,0.534,3.257,0.477,5.239H152.969z"/>
	<path fill="#FFFFFF" d="M176.061,154.11h-8.284v-5.484h15.501v23.842h8.457v5.484h-24.968v-5.484h9.294V154.11z M183.854,140.602
		c0,0.635-0.115,1.231-0.347,1.79c-0.23,0.559-0.553,1.044-0.967,1.458c-0.414,0.414-0.899,0.741-1.458,0.981
		c-0.558,0.241-1.164,0.361-1.818,0.361s-1.266-0.12-1.833-0.361c-0.567-0.24-1.059-0.567-1.472-0.981
		c-0.414-0.414-0.736-0.899-0.967-1.458c-0.231-0.558-0.347-1.155-0.347-1.79c0-0.635,0.115-1.231,0.347-1.79
		c0.23-0.558,0.553-1.049,0.967-1.472c0.413-0.423,0.904-0.755,1.472-0.996c0.567-0.24,1.179-0.361,1.833-0.361
		s1.261,0.121,1.818,0.361c0.559,0.241,1.044,0.573,1.458,0.996s0.736,0.914,0.967,1.472
		C183.739,139.37,183.854,139.966,183.854,140.602z"/>
	<path fill="#FFFFFF" d="M216.587,177.953v-19.108c0-3.213-1.193-4.821-3.579-4.821c-1.193,0-2.333,0.481-3.42,1.443
		c-1.088,0.962-2.237,2.271-3.449,3.926v18.56h-7.043v-29.327h6.09l0.174,4.33c0.596-0.75,1.217-1.433,1.861-2.049
		c0.645-0.616,1.342-1.14,2.093-1.573c0.75-0.433,1.559-0.765,2.425-0.996c0.865-0.231,1.837-0.347,2.915-0.347
		c1.501,0,2.81,0.246,3.926,0.736c1.115,0.491,2.05,1.184,2.8,2.078c0.751,0.895,1.313,1.973,1.688,3.233
		c0.375,1.261,0.563,2.67,0.563,4.229v19.686H216.587z"/>
	<path fill="#FFFFFF" d="M253.591,153.764c0.539,0.674,0.919,1.381,1.141,2.122c0.221,0.741,0.332,1.497,0.332,2.266
		c0,1.636-0.284,3.079-0.852,4.33c-0.568,1.251-1.366,2.3-2.396,3.146c-1.03,0.847-2.262,1.486-3.695,1.919
		s-3.017,0.649-4.748,0.649c-1.021,0-1.963-0.101-2.829-0.303c-0.865-0.202-1.52-0.438-1.963-0.707
		c-0.327,0.328-0.605,0.688-0.837,1.083c-0.23,0.395-0.346,0.842-0.346,1.342c0,0.308,0.076,0.616,0.23,0.923
		c0.154,0.308,0.38,0.583,0.679,0.823c0.298,0.241,0.653,0.438,1.067,0.592c0.414,0.154,0.881,0.241,1.4,0.26l6.956,0.26
		c1.559,0.039,2.969,0.236,4.229,0.592c1.261,0.356,2.343,0.861,3.248,1.516c0.904,0.654,1.602,1.448,2.093,2.381
		c0.49,0.934,0.735,1.996,0.735,3.189c0,1.366-0.308,2.655-0.924,3.868c-0.615,1.212-1.544,2.266-2.785,3.161
		c-1.241,0.895-2.785,1.602-4.633,2.122s-3.993,0.779-6.437,0.779c-2.367,0-4.402-0.188-6.105-0.563
		c-1.703-0.375-3.098-0.9-4.186-1.573c-1.087-0.674-1.891-1.477-2.41-2.41c-0.52-0.934-0.779-1.958-0.779-3.074
		c0-0.674,0.087-1.299,0.26-1.876c0.174-0.577,0.434-1.13,0.779-1.66c0.347-0.529,0.78-1.043,1.3-1.544s1.135-1,1.847-1.501
		c-0.942-0.539-1.659-1.231-2.15-2.079c-0.49-0.846-0.736-1.75-0.736-2.713c0-0.654,0.087-1.265,0.26-1.833
		c0.174-0.567,0.399-1.111,0.679-1.631s0.602-1.02,0.967-1.501s0.751-0.953,1.155-1.415c-0.713-0.711-1.305-1.573-1.775-2.583
		c-0.472-1.01-0.707-2.275-0.707-3.795c0-1.636,0.293-3.093,0.88-4.373s1.4-2.357,2.439-3.233c1.039-0.875,2.275-1.54,3.709-1.992
		s2.997-0.678,4.69-0.678c0.866,0,1.698,0.043,2.497,0.13c0.798,0.086,1.524,0.236,2.179,0.447h10.161v5.138H253.591z
		 M236.994,181.85c0,1.135,0.572,1.972,1.717,2.511c1.146,0.538,2.757,0.808,4.835,0.808c1.328,0,2.449-0.125,3.363-0.375
		s1.659-0.577,2.237-0.981c0.577-0.404,0.99-0.875,1.241-1.414c0.249-0.539,0.375-1.097,0.375-1.674c0-0.52-0.121-0.958-0.361-1.313
		s-0.577-0.654-1.01-0.895c-0.434-0.241-0.943-0.424-1.53-0.548c-0.587-0.125-1.236-0.207-1.948-0.246l-6.206-0.115
		c-0.559,0.385-1.015,0.75-1.371,1.097s-0.635,0.688-0.837,1.025c-0.202,0.336-0.337,0.678-0.404,1.024
		C237.027,181.099,236.994,181.464,236.994,181.85z M238.178,158.325c0,1.559,0.456,2.795,1.371,3.709
		c0.913,0.914,2.188,1.371,3.824,1.371c0.866,0,1.621-0.145,2.266-0.433s1.179-0.673,1.603-1.154c0.423-0.481,0.74-1.04,0.952-1.674
		c0.212-0.635,0.317-1.299,0.317-1.992c0-1.635-0.457-2.911-1.371-3.825c-0.914-0.914-2.188-1.371-3.824-1.371
		c-0.866,0-1.621,0.145-2.266,0.433c-0.646,0.289-1.18,0.678-1.603,1.169s-0.741,1.063-0.952,1.717
		C238.283,156.93,238.178,157.613,238.178,158.325z"/>
	<path fill="#FFFFFF" d="M95.412,207.142c-0.847-0.269-1.853-0.495-3.017-0.678c-1.164-0.183-2.353-0.274-3.564-0.274
		c-0.828,0-1.598,0.111-2.31,0.332c-0.712,0.222-1.327,0.573-1.847,1.054s-0.929,1.092-1.228,1.833
		c-0.298,0.741-0.447,1.641-0.447,2.699v4.734h11.518v5.484H83v19.628h-7.101v-19.628h-8.515v-5.484h8.515v-4.445
		c0-2.078,0.303-3.863,0.909-5.354c0.606-1.491,1.462-2.713,2.569-3.666c1.106-0.952,2.438-1.649,3.998-2.092
		c1.559-0.443,3.3-0.664,5.224-0.664c1.271,0,2.478,0.082,3.623,0.245c1.145,0.164,2.208,0.361,3.189,0.592V207.142z"/>
	<path fill="#FFFFFF" d="M111.057,206.651h-8.284v-5.484h15.501v35.302h8.457v5.484h-24.968v-5.484h9.294V206.651z"/>
	<path fill="#FFFFFF" d="M160.503,227.059c0,2.309-0.328,4.421-0.981,6.335c-0.654,1.915-1.598,3.556-2.829,4.921
		c-1.231,1.367-2.742,2.425-4.531,3.175c-1.79,0.75-3.83,1.126-6.12,1.126c-2.175,0-4.118-0.318-5.83-0.953
		c-1.713-0.635-3.166-1.583-4.358-2.843c-1.193-1.26-2.107-2.838-2.742-4.734c-0.636-1.895-0.953-4.104-0.953-6.625
		c0-2.328,0.332-4.445,0.996-6.35c0.664-1.905,1.616-3.531,2.857-4.878c1.241-1.347,2.757-2.391,4.546-3.132
		c1.79-0.74,3.811-1.111,6.063-1.111c2.193,0,4.146,0.323,5.859,0.967c1.712,0.645,3.165,1.602,4.358,2.872
		c1.192,1.27,2.103,2.843,2.728,4.719C160.189,222.426,160.503,224.595,160.503,227.059z M153.171,227.231
		c0-3.04-0.572-5.326-1.718-6.855c-1.145-1.53-2.833-2.294-5.065-2.294c-1.231,0-2.28,0.241-3.146,0.722
		c-0.865,0.481-1.578,1.14-2.136,1.977c-0.559,0.837-0.967,1.814-1.227,2.93c-0.26,1.116-0.39,2.309-0.39,3.579
		c0,3.06,0.615,5.365,1.847,6.914s2.916,2.323,5.052,2.323c1.174,0,2.193-0.235,3.06-0.707c0.866-0.471,1.568-1.125,2.107-1.963
		c0.538-0.837,0.942-1.823,1.212-2.958C153.036,229.762,153.171,228.541,153.171,227.231z"/>
	<path fill="#FFFFFF" d="M184.98,241.953l-0.174-3.839c-0.615,0.654-1.26,1.255-1.934,1.804c-0.674,0.549-1.414,1.025-2.223,1.429
		c-0.809,0.404-1.688,0.716-2.641,0.938c-0.953,0.221-1.997,0.332-3.132,0.332c-1.501,0-2.819-0.222-3.955-0.664
		s-2.088-1.058-2.857-1.847s-1.353-1.742-1.746-2.858c-0.395-1.116-0.592-2.348-0.592-3.695c0-1.385,0.293-2.665,0.88-3.839
		c0.587-1.173,1.481-2.184,2.685-3.031c1.202-0.847,2.703-1.51,4.503-1.992c1.799-0.481,3.911-0.722,6.336-0.722h3.839v-1.761
		c0-0.75-0.105-1.429-0.317-2.035c-0.212-0.606-0.554-1.121-1.024-1.544c-0.472-0.423-1.083-0.75-1.833-0.981
		c-0.751-0.231-1.674-0.346-2.771-0.346c-1.731,0-3.439,0.197-5.123,0.591c-1.685,0.395-3.315,0.948-4.893,1.66v-5.629
		c1.404-0.558,3.025-1.02,4.863-1.385s3.748-0.549,5.729-0.549c2.175,0,4.042,0.207,5.601,0.621
		c1.559,0.414,2.843,1.035,3.854,1.862c1.01,0.828,1.756,1.862,2.236,3.103c0.481,1.241,0.722,2.689,0.722,4.344v20.032H184.98z
		 M183.97,228.992h-4.301c-1.193,0-2.203,0.116-3.03,0.347c-0.828,0.231-1.501,0.548-2.021,0.952c-0.521,0.404-0.9,0.871-1.141,1.4
		c-0.241,0.529-0.36,1.092-0.36,1.688c0,1.193,0.384,2.103,1.154,2.728c0.77,0.625,1.818,0.938,3.146,0.938
		c0.981,0,2.001-0.355,3.06-1.068c1.058-0.711,2.223-1.732,3.492-3.06V228.992z"/>
	<path fill="#FFFFFF" d="M223.284,241.664c-1.271,0.289-2.55,0.52-3.839,0.693c-1.29,0.173-2.512,0.26-3.666,0.26
		c-1.925,0-3.584-0.202-4.979-0.606c-1.396-0.404-2.55-1.02-3.464-1.847c-0.914-0.827-1.587-1.881-2.021-3.161
		c-0.433-1.28-0.649-2.805-0.649-4.575V218.11h-7.88v-5.484h7.88v-7.505l7.217-1.876v9.381h11.401v5.484h-11.401v13.797
		c0,1.674,0.384,2.939,1.154,3.796c0.77,0.856,2.059,1.284,3.868,1.284c1.154,0,2.28-0.096,3.377-0.289
		c1.097-0.192,2.097-0.414,3.002-0.664V241.664z"/>
	<path fill="#FFFFFF" d="M95.47,290.771c0,2.694-0.38,5.022-1.14,6.985c-0.761,1.963-1.818,3.594-3.176,4.893
		c-1.356,1.299-2.958,2.261-4.806,2.886c-1.848,0.626-3.858,0.938-6.033,0.938c-2.136,0-4.123-0.159-5.96-0.477
		c-1.838-0.317-3.594-0.745-5.268-1.284v-39.545h7.043v9.583l-0.289,5.773c1.058-1.366,2.295-2.463,3.709-3.291
		c1.414-0.827,3.112-1.241,5.095-1.241c1.732,0,3.271,0.347,4.618,1.039c1.347,0.693,2.478,1.68,3.392,2.959
		c0.914,1.28,1.611,2.829,2.093,4.647S95.47,288.5,95.47,290.771z M88.08,291.059c0-1.616-0.115-2.992-0.346-4.127
		c-0.231-1.136-0.563-2.068-0.996-2.801c-0.433-0.73-0.963-1.265-1.588-1.602s-1.342-0.505-2.15-0.505
		c-1.193,0-2.333,0.481-3.42,1.443c-1.088,0.962-2.237,2.271-3.449,3.925v12.816c0.558,0.212,1.245,0.385,2.063,0.52
		c0.817,0.135,1.649,0.202,2.497,0.202c1.115,0,2.131-0.23,3.045-0.692s1.693-1.116,2.338-1.963s1.141-1.881,1.486-3.104
		C87.907,293.95,88.08,292.579,88.08,291.059z"/>
	<path fill="#FFFFFF" d="M128.001,291.059c0,2.31-0.328,4.422-0.981,6.336c-0.654,1.915-1.598,3.556-2.829,4.922
		s-2.742,2.425-4.531,3.175c-1.79,0.751-3.83,1.126-6.12,1.126c-2.175,0-4.118-0.317-5.83-0.953
		c-1.713-0.635-3.166-1.582-4.358-2.843c-1.193-1.26-2.107-2.838-2.742-4.733c-0.636-1.896-0.953-4.104-0.953-6.625
		c0-2.328,0.332-4.445,0.996-6.351c0.664-1.904,1.616-3.53,2.857-4.878c1.241-1.347,2.757-2.391,4.546-3.132
		c1.79-0.74,3.811-1.111,6.063-1.111c2.193,0,4.146,0.322,5.859,0.967c1.712,0.646,3.165,1.603,4.358,2.872
		c1.192,1.271,2.103,2.844,2.728,4.72S128.001,288.596,128.001,291.059z M120.669,291.232c0-3.041-0.572-5.326-1.718-6.855
		c-1.145-1.53-2.833-2.295-5.065-2.295c-1.231,0-2.28,0.24-3.146,0.722c-0.865,0.481-1.578,1.14-2.136,1.977
		c-0.559,0.838-0.967,1.814-1.227,2.931s-0.39,2.309-0.39,3.579c0,3.06,0.615,5.364,1.847,6.913s2.916,2.323,5.052,2.323
		c1.174,0,2.193-0.235,3.06-0.707s1.568-1.126,2.107-1.963c0.538-0.837,0.942-1.823,1.212-2.959
		C120.534,293.763,120.669,292.541,120.669,291.232z"/>
	<path fill="#FFFFFF" d="M160.503,291.059c0,2.31-0.328,4.422-0.981,6.336c-0.654,1.915-1.598,3.556-2.829,4.922
		s-2.742,2.425-4.531,3.175c-1.79,0.751-3.83,1.126-6.12,1.126c-2.175,0-4.118-0.317-5.83-0.953
		c-1.713-0.635-3.166-1.582-4.358-2.843c-1.193-1.26-2.107-2.838-2.742-4.733c-0.636-1.896-0.953-4.104-0.953-6.625
		c0-2.328,0.332-4.445,0.996-6.351c0.664-1.904,1.616-3.53,2.857-4.878c1.241-1.347,2.757-2.391,4.546-3.132
		c1.79-0.74,3.811-1.111,6.063-1.111c2.193,0,4.146,0.322,5.859,0.967c1.712,0.646,3.165,1.603,4.358,2.872
		c1.192,1.271,2.103,2.844,2.728,4.72S160.503,288.596,160.503,291.059z M153.171,291.232c0-3.041-0.572-5.326-1.718-6.855
		c-1.145-1.53-2.833-2.295-5.065-2.295c-1.231,0-2.28,0.24-3.146,0.722c-0.865,0.481-1.578,1.14-2.136,1.977
		c-0.559,0.838-0.967,1.814-1.227,2.931s-0.39,2.309-0.39,3.579c0,3.06,0.615,5.364,1.847,6.913s2.916,2.323,5.052,2.323
		c1.174,0,2.193-0.235,3.06-0.707s1.568-1.126,2.107-1.963c0.538-0.837,0.942-1.823,1.212-2.959
		C153.036,293.763,153.171,292.541,153.171,291.232z"/>
	<path fill="#FFFFFF" d="M176.061,270.651h-8.284v-5.484h15.501v35.302h8.457v5.484h-24.968v-5.484h9.294V270.651z"/>
	<path fill="#FFFFFF" d="M78.555,334.651h-8.284v-5.484h15.501v35.302h8.457v5.484H69.261v-5.484h9.294V334.651z"/>
	<path fill="#FFFFFF" d="M111.057,346.11h-8.284v-5.484h15.501v23.843h8.457v5.484h-24.968v-5.484h9.294V346.11z M118.851,332.602
		c0,0.636-0.115,1.232-0.347,1.79c-0.23,0.559-0.553,1.044-0.967,1.458s-0.899,0.74-1.458,0.981c-0.558,0.24-1.164,0.36-1.818,0.36
		s-1.266-0.12-1.833-0.36c-0.567-0.241-1.059-0.567-1.472-0.981c-0.414-0.414-0.736-0.899-0.967-1.458
		c-0.231-0.558-0.347-1.154-0.347-1.79c0-0.635,0.115-1.23,0.347-1.789c0.23-0.558,0.553-1.049,0.967-1.473
		c0.413-0.423,0.904-0.755,1.472-0.995s1.179-0.361,1.833-0.361s1.261,0.121,1.818,0.361c0.559,0.24,1.044,0.572,1.458,0.995
		c0.414,0.424,0.736,0.915,0.967,1.473C118.735,331.371,118.851,331.967,118.851,332.602z"/>
	<path fill="#FFFFFF" d="M158.28,361.322c0,1.675-0.371,3.104-1.111,4.287c-0.741,1.183-1.723,2.146-2.944,2.886
		c-1.223,0.741-2.607,1.28-4.156,1.617c-1.55,0.336-3.132,0.505-4.749,0.505c-2.155,0-4.099-0.102-5.83-0.304
		c-1.732-0.201-3.368-0.495-4.907-0.88v-6.351c1.809,0.751,3.612,1.295,5.412,1.631c1.799,0.337,3.497,0.506,5.095,0.506
		c1.848,0,3.228-0.294,4.142-0.881s1.371-1.352,1.371-2.295c0-0.442-0.096-0.847-0.288-1.212s-0.554-0.717-1.083-1.054
		s-1.274-0.683-2.236-1.039c-0.963-0.356-2.223-0.755-3.781-1.198c-1.443-0.404-2.709-0.86-3.796-1.371
		c-1.088-0.51-1.987-1.111-2.699-1.804c-0.712-0.693-1.246-1.496-1.602-2.41c-0.356-0.914-0.534-1.987-0.534-3.219
		c0-1.192,0.27-2.318,0.809-3.377c0.538-1.059,1.342-1.987,2.41-2.785c1.067-0.799,2.4-1.43,3.997-1.891
		c1.598-0.462,3.464-0.693,5.601-0.693c1.847,0,3.482,0.097,4.906,0.289s2.685,0.404,3.781,0.635v5.744
		c-1.674-0.538-3.247-0.919-4.719-1.141c-1.473-0.221-2.93-0.331-4.373-0.331s-2.603,0.26-3.479,0.779s-1.313,1.241-1.313,2.164
		c0,0.443,0.087,0.838,0.26,1.184c0.174,0.347,0.515,0.684,1.025,1.011c0.509,0.327,1.222,0.669,2.136,1.024
		c0.913,0.356,2.121,0.746,3.622,1.169c1.693,0.481,3.117,0.996,4.272,1.545c1.154,0.548,2.083,1.169,2.785,1.861
		s1.207,1.482,1.516,2.367C158.126,359.177,158.28,360.188,158.28,361.322z"/>
	<path fill="#FFFFFF" d="M190.782,369.664c-1.271,0.289-2.55,0.52-3.839,0.693c-1.29,0.173-2.512,0.26-3.666,0.26
		c-1.925,0-3.584-0.202-4.979-0.606s-2.55-1.02-3.464-1.848c-0.914-0.827-1.587-1.88-2.021-3.16
		c-0.433-1.279-0.649-2.805-0.649-4.575V346.11h-7.88v-5.484h7.88v-7.505l7.217-1.876v9.381h11.401v5.484h-11.401v13.798
		c0,1.674,0.384,2.939,1.154,3.796c0.77,0.856,2.059,1.284,3.868,1.284c1.154,0,2.28-0.096,3.377-0.288s2.097-0.414,3.002-0.664
		V369.664z"/>
	<path fill="#FFFFFF" d="M89.783,433.953v-19.975c0-0.731-0.02-1.371-0.058-1.919c-0.039-0.549-0.115-1.006-0.23-1.371
		c-0.115-0.366-0.284-0.64-0.506-0.823c-0.221-0.183-0.524-0.274-0.909-0.274c-0.597,0-1.183,0.404-1.761,1.213
		c-0.577,0.808-1.231,2.184-1.963,4.128v19.021h-6.032v-19.975c0-0.731-0.02-1.371-0.058-1.919
		c-0.039-0.549-0.115-1.006-0.231-1.371c-0.115-0.366-0.288-0.64-0.52-0.823c-0.23-0.183-0.539-0.274-0.924-0.274
		c-0.5,0-1.058,0.404-1.674,1.213c-0.616,0.808-1.299,2.184-2.049,4.128v19.021h-6.091v-29.327h5.225l0.115,4.272
		c0.423-0.866,0.847-1.606,1.271-2.223c0.423-0.615,0.875-1.121,1.356-1.516c0.48-0.394,0.996-0.678,1.544-0.852
		c0.549-0.173,1.169-0.26,1.862-0.26c1.635,0,2.881,0.429,3.737,1.285s1.343,2.045,1.458,3.564c0.462-0.866,0.919-1.606,1.371-2.223
		c0.452-0.615,0.924-1.121,1.414-1.516c0.491-0.394,1.021-0.678,1.588-0.852c0.567-0.173,1.198-0.26,1.891-0.26
		c2.136,0,3.714,0.746,4.733,2.237c1.021,1.491,1.53,3.699,1.53,6.624v21.043H89.783z"/>
	<path fill="#FFFFFF" d="M119.977,433.953l-0.174-3.839c-0.615,0.654-1.26,1.256-1.934,1.804c-0.674,0.549-1.414,1.024-2.223,1.429
		s-1.688,0.717-2.641,0.938c-0.953,0.221-1.997,0.332-3.132,0.332c-1.501,0-2.819-0.222-3.955-0.664s-2.088-1.058-2.857-1.848
		c-0.77-0.788-1.353-1.741-1.746-2.857c-0.395-1.115-0.592-2.348-0.592-3.694c0-1.386,0.293-2.665,0.88-3.839
		s1.481-2.185,2.685-3.031c1.202-0.847,2.703-1.511,4.503-1.991c1.799-0.481,3.911-0.722,6.336-0.722h3.839v-1.761
		c0-0.751-0.105-1.43-0.317-2.035c-0.212-0.606-0.554-1.121-1.024-1.545c-0.472-0.423-1.083-0.75-1.833-0.981
		c-0.751-0.23-1.674-0.346-2.771-0.346c-1.731,0-3.439,0.197-5.123,0.592c-1.685,0.395-3.315,0.947-4.893,1.659v-5.628
		c1.404-0.559,3.025-1.021,4.863-1.386s3.748-0.549,5.729-0.549c2.175,0,4.042,0.207,5.601,0.621s2.843,1.034,3.854,1.861
		c1.01,0.828,1.756,1.862,2.236,3.104c0.481,1.241,0.722,2.689,0.722,4.344v20.032H119.977z M118.966,420.993h-4.301
		c-1.193,0-2.203,0.115-3.03,0.346c-0.828,0.231-1.501,0.549-2.021,0.953c-0.521,0.404-0.9,0.871-1.141,1.399
		c-0.241,0.529-0.36,1.093-0.36,1.688c0,1.193,0.384,2.103,1.154,2.729c0.77,0.625,1.818,0.938,3.146,0.938
		c0.981,0,2.001-0.355,3.06-1.067c1.058-0.712,2.223-1.732,3.492-3.061V420.993z"/>
	<path fill="#FFFFFF" d="M160.474,418.771c0,2.694-0.38,5.022-1.14,6.985c-0.761,1.963-1.818,3.594-3.176,4.893
		c-1.356,1.299-2.958,2.261-4.806,2.886c-1.848,0.626-3.858,0.938-6.033,0.938c-0.731,0-1.462-0.048-2.193-0.145
		s-1.396-0.222-1.991-0.375v11.459h-7.043v-40.786h6.09l0.174,4.33c0.596-0.75,1.217-1.434,1.861-2.05
		c0.645-0.615,1.342-1.14,2.093-1.572c0.75-0.434,1.559-0.766,2.425-0.996c0.865-0.231,1.837-0.347,2.915-0.347
		c1.732,0,3.271,0.347,4.618,1.039c1.347,0.693,2.478,1.68,3.392,2.959c0.914,1.28,1.611,2.829,2.093,4.647
		S160.474,416.5,160.474,418.771z M153.084,419.059c0-1.616-0.115-2.992-0.346-4.127c-0.231-1.136-0.563-2.068-0.996-2.801
		c-0.433-0.73-0.963-1.265-1.588-1.602s-1.342-0.505-2.15-0.505c-1.193,0-2.333,0.481-3.42,1.443
		c-1.088,0.962-2.237,2.271-3.449,3.925v12.816c0.558,0.212,1.245,0.385,2.063,0.52c0.817,0.135,1.649,0.202,2.497,0.202
		c1.115,0,2.131-0.23,3.045-0.692s1.693-1.116,2.338-1.963s1.141-1.881,1.486-3.104C152.911,421.95,153.084,420.579,153.084,419.059
		z"/>
</g>
<path fill="none" stroke="#FFFFFF" stroke-width="12" stroke-miterlimit="10" d="M477,454c0,13.255-10.745,24-24,24H57
	c-13.255,0-24-10.745-24-24V58c0-13.255,10.745-24,24-24h396c13.255,0,24,10.745,24,24V454z"/>
</svg>
