<?xml version="1.0" encoding="utf-8"?>
<!-- Generator: Adobe Illustrator 16.0.0, SVG Export Plug-In . SVG Version: 6.00 Build 0)  -->
<!DOCTYPE svg PUBLIC "-//W3C//DTD SVG 1.1//EN" "http://www.w3.org/Graphics/SVG/1.1/DTD/svg11.dtd">
<svg version="1.1" id="Layer_1" xmlns="http://www.w3.org/2000/svg" xmlns:xlink="http://www.w3.org/1999/xlink" x="0px" y="0px"
	 width="512px" height="512px" viewBox="0 0 512 512" enable-background="new 0 0 512 512" xml:space="preserve">
<g>
	<g>
		<path fill="#FFFFFF" d="M116.501,295.575c-0.959,0-1.81-0.295-2.546-0.886c-0.738-0.591-1.292-1.495-1.661-2.713
			c-0.37-1.218-0.554-4.189-0.554-8.913V242.85c0-11.145-0.517-18.27-1.55-21.37c-1.698-4.872-5.407-9.393-11.127-13.563
			c-5.722-4.169-13.491-6.256-23.308-6.256c-8.12,0-15.944,1.292-23.473,3.875c-7.53,2.585-13.398,6.294-17.604,11.128
			c-4.208,4.836-6.313,9.91-6.313,15.224c0,3.765,1.568,7.051,4.706,9.855c3.136,2.806,7.03,4.207,11.681,4.207
			c4.355,0,7.879-1.273,10.574-3.82c2.693-2.547,4.042-5.628,4.042-9.246c0-2.952-1.403-6.016-4.207-9.191
			c-2.067-2.286-3.101-4.207-3.101-5.757c0-1.771,0.959-3.321,2.879-4.65c3.101-2.14,7.049-3.21,11.848-3.21
			c2.951,0,5.608,0.757,7.971,2.27c2.361,1.514,3.969,3.286,4.816,5.315c0.848,2.031,1.273,6.958,1.273,14.781v10.408
			c-22.808,10.482-37.608,18.881-44.399,25.211c-6.792,6.311-10.187,13.416-10.187,21.314c0,5.831,1.956,10.685,5.869,14.56
			c3.911,3.876,8.819,5.813,14.725,5.813c10.038,0,21.37-5.573,33.992-16.72c0.737,5.61,2.769,9.8,6.09,12.567
			c3.322,2.769,7.935,4.152,13.842,4.152c5.018,0,9.502-1.237,13.451-3.709c3.948-2.474,7.769-6.44,11.46-11.903l-3.321-2.657
			C120.377,294.21,118.421,295.575,116.501,295.575z M80.849,284.945c-4.871,4.135-9.153,6.201-12.844,6.201
			c-3.32,0-5.905-0.997-7.75-2.99c-2.436-2.584-3.654-5.573-3.654-8.969c0-4.058,1.44-8.082,4.319-12.068
			c4.354-5.998,10.997-11.609,19.929-16.852V284.945z M205.744,201.661c-10.335,0-19.856,4.503-28.566,13.508v-57.022h-42.96v4.097
			c3.765,0.149,6.439,0.72,8.027,1.716c1.586,0.997,2.749,2.53,3.488,4.595c0.516,1.403,0.775,5.094,0.775,11.073v131.672h3.763
			l4.422-2.881l22.484-42.225v-41.17c5.831-7.159,11.919-10.74,18.269-10.74c3.064,0,5.732,0.85,8.009,2.543l7.836-14.715
			C209.47,201.817,207.622,201.661,205.744,201.661z"/>
	</g>
</g>
<g>
	<g>
		<path fill="#FFFFFF" d="M305.39,277.698c-5.759-4.726-15.762-8.749-30.007-12.072c13.212-3.322,22.439-7.806,27.681-13.453
			c5.241-5.648,7.861-12.087,7.861-19.322c0-6.865-2.066-13.343-6.2-19.433c-4.134-6.09-9.782-10.665-16.941-13.729
			c-4.457-1.907-10.863-3.22-19.212-3.94l-6.768,12.709c3.318,2.059,5.984,4.706,7.987,7.95c2.619,4.247,3.931,9.688,3.931,16.332
			c0,6.644-1.329,12.106-3.986,16.388c-2.656,4.281-6.476,7.603-11.458,9.966c-4.983,2.362-12.717,3.542-23.197,3.542v-3.997
			l-35.089,65.916c-0.19,4.876-0.654,8.085-1.395,9.62c-0.996,2.067-2.731,3.747-5.203,5.035c-0.435,0.228-0.962,0.427-1.534,0.614
			l-2.885,5.418h66.589c21.259,0,37.461-4.46,48.608-13.393c9.078-7.381,13.617-16.72,13.617-28.015
			C317.789,293.13,313.654,284.416,305.39,277.698z M274.828,321.719c-2.657,4.982-6.476,8.783-11.458,11.404
			s-10.428,3.928-16.332,3.928c-3.986,0-6.994-1.013-9.024-3.042c-2.031-2.03-3.045-5.038-3.045-9.024l0.111-5.536v-48.175
			c11.294-0.071,19.781,0.998,25.466,3.211c5.684,2.217,10.148,6.111,13.397,11.686c3.248,5.574,4.871,11.866,4.871,18.884
			C278.814,311.181,277.486,316.735,274.828,321.719z M398.729,209.709c7.822-5.386,16.422-8.082,25.798-8.082
			c11.22,0,21.259,3.617,30.117,10.85c8.856,7.236,14.909,17.644,18.157,31.225h4.319v-52.041h-4.319
			c-0.516,3.765-1.643,6.516-3.376,8.25c-1.735,1.736-3.783,2.602-6.146,2.602c-1.845,0-6.163-1.329-12.953-3.986
			c-11.736-4.575-22.884-6.865-33.438-6.865c-14.321,0-27.848,3.543-40.579,10.63c-12.733,7.085-22.849,17.051-30.34,29.895
			c-7.492,12.845-11.237,26.428-11.237,40.75c0,13.584,3.377,26.393,10.131,38.429c6.754,12.032,16.35,21.26,28.789,27.68
			c12.437,6.418,26.665,9.627,42.683,9.627c12.18,0,22.826-1.974,31.944-5.92c9.114-3.945,17.88-10.312,26.296-19.097v-12.954
			c-8.71,10.113-16.995,17.236-24.856,21.37c-7.862,4.134-16.517,6.198-25.966,6.198c-11.515,0-20.891-2.821-28.123-8.469
			c-7.235-5.646-12.551-13.988-15.943-25.024c-3.397-11.038-5.094-23.274-5.094-36.713c0-13.658,2.325-26.06,6.977-37.206
			C385.181,222.15,390.904,215.099,398.729,209.709z"/>
	</g>
</g>
<line fill="none" stroke="#FFFFFF" stroke-width="12" stroke-linecap="round" stroke-miterlimit="10" x1="282.747" y1="127.874" x2="124.654" y2="410.745"/>
</svg>
